<svg id="Layer_1" data-name="Layer 1" xmlns="http://www.w3.org/2000/svg" viewBox="0 0 292.39 147.8"><defs><style>.cls-1,.cls-2{fill:#2f2c27;}.cls-2{fill-rule:evenodd;}</style></defs><title>cardLogo</title><path class="cls-1" d="M94,165.49a5,5,0,0,0-1.12,3.14,3.52,3.52,0,0,0,1.69,3.12,3.94,3.94,0,0,0,2.24.66,4.58,4.58,0,0,0,2.18-.49,3.56,3.56,0,0,0,2-3,2.11,2.11,0,0,0,0-.3,4,4,0,0,0-.44-1.71,4.8,4.8,0,0,0-1.43-1.69l-3.86-3A3.07,3.07,0,0,1,94,159.64,3.71,3.71,0,0,1,95,157a3.56,3.56,0,0,1,2.73-1.07,9.07,9.07,0,0,1,1.87.22h0.86l0,2.63h-0.21a2,2,0,0,0-.74-1.61,2.76,2.76,0,0,0-1.8-.59,2.49,2.49,0,0,0-1.82.71,2.46,2.46,0,0,0-.73,1.83,2.29,2.29,0,0,0,.94,1.87l4,3.12a5.54,5.54,0,0,1,2.36,4.48,4.38,4.38,0,0,1-1.57,3.37,5.19,5.19,0,0,1-3.61,1.21,5.63,5.63,0,0,1-2.45-.51,4.14,4.14,0,0,1-2.42-3.2,4.16,4.16,0,0,1,.24-2.29,5.06,5.06,0,0,1,1.16-1.82Z" transform="translate(-21.08 -25.37)"/><path class="cls-1" d="M115.58,171a1.31,1.31,0,0,0,1-.39,1.37,1.37,0,0,0,.42-0.95v-12a1.1,1.1,0,0,0-.41-0.86,1.43,1.43,0,0,0-1-.35h-0.26l0-.21h6.29a9,9,0,0,0,1.45-.13,5.93,5.93,0,0,0,1.11-.25v2.69h-0.21v-0.38a1.21,1.21,0,0,0-.35-0.88,1.22,1.22,0,0,0-.85-0.38h-4.38v6.6H122a1.08,1.08,0,0,0,.73-0.32,1,1,0,0,0,.3-0.75v-0.3h0.21v3.37H123v-0.32a1,1,0,0,0-.29-0.73,1,1,0,0,0-.72-0.32h-3.65v6.38h3.07a3.68,3.68,0,0,0,2.43-.7,5.22,5.22,0,0,0,1.4-2.09h0.21l-1.25,3.46H115.3V171h0.28Z" transform="translate(-21.08 -25.37)"/><path class="cls-1" d="M142.66,156.93h-1.37v12.72a1.29,1.29,0,0,0,.4,1,1.33,1.33,0,0,0,1,.4h0.26l0,0.21h-4.7V171h0.28a1.37,1.37,0,0,0,1.38-1.32V157.83a1.37,1.37,0,0,0-.42-1,1.31,1.31,0,0,0-1-.4h-0.28v-0.21H144a4.24,4.24,0,0,1,3.07,1.08,3.71,3.71,0,0,1,1.11,2.8,4.43,4.43,0,0,1-1.07,3,3.28,3.28,0,0,1-2.59,1.25,2.94,2.94,0,0,1,.76.59,7.67,7.67,0,0,1,.78.91q1.84,2.63,2.4,3.24t0.79,0.83a6.2,6.2,0,0,0,.52.44,2.93,2.93,0,0,0,.56.34,3,3,0,0,0,1.33.3v0.21h-1.18a4.41,4.41,0,0,1-1.72-.33,4.31,4.31,0,0,1-1.19-.68,7.63,7.63,0,0,1-.69-0.68q-0.29-.33-1.6-2.21t-1.52-2.15q-0.21-.27-0.45-0.52a1.94,1.94,0,0,0-1.37-.73V163.7l0.45,0,0.69,0a3.19,3.19,0,0,0,3.35-2.22,2.75,2.75,0,0,0,.13-0.8q0-.37,0-0.48a3.74,3.74,0,0,0-.75-2.31,2.52,2.52,0,0,0-1.91-.94Z" transform="translate(-21.08 -25.37)"/><path class="cls-1" d="M172.43,156.3h4.32v0.21h-0.19a1.93,1.93,0,0,0-1.05.33,2.24,2.24,0,0,0-.82,1l-5.19,11.5a7.77,7.77,0,0,0-.8,2.2H168.5l-6-13.69a2.2,2.2,0,0,0-.83-1,2,2,0,0,0-1.06-.33h-0.17v-0.21h4.83v0.21h-0.19a0.81,0.81,0,0,0-.68.29,0.9,0.9,0,0,0-.23.53,1.29,1.29,0,0,0,.11.5L168.74,169l4.69-11.18a1.58,1.58,0,0,0,.09-0.5,0.89,0.89,0,0,0-.23-0.53,0.8,0.8,0,0,0-.68-0.29h-0.19V156.3Z" transform="translate(-21.08 -25.37)"/><path class="cls-1" d="M188.8,171a1.31,1.31,0,0,0,1-.39,1.37,1.37,0,0,0,.42-0.95V157.86a1.37,1.37,0,0,0-1.37-1.32h-0.28v-0.21h4.7v0.21H193a1.37,1.37,0,0,0-1.38,1.32v11.85a1.27,1.27,0,0,0,.41.95,1.34,1.34,0,0,0,1,.4h0.28v0.21h-4.7V171h0.28Z" transform="translate(-21.08 -25.37)"/><path class="cls-1" d="M208.23,169.42A7.76,7.76,0,0,1,213.9,156,9.07,9.07,0,0,1,219,157.5l0.43,3h-0.19a4.73,4.73,0,0,0-1.91-2.83,5.86,5.86,0,0,0-3.41-1,5.66,5.66,0,0,0-4.5,1.94,7.57,7.57,0,0,0-1.69,5.14,7.67,7.67,0,0,0,1.66,5.16,5.68,5.68,0,0,0,4.39,2,6.18,6.18,0,0,0,4-1.3,6.6,6.6,0,0,0,2.11-4.59h0.17l-0.26,3.35a6.59,6.59,0,0,1-6,3.17A7.56,7.56,0,0,1,208.23,169.42Z" transform="translate(-21.08 -25.37)"/><path class="cls-1" d="M233.43,171.09a1.31,1.31,0,0,0,1-.39,1.37,1.37,0,0,0,.42-0.95v-12a1.1,1.1,0,0,0-.41-0.86,1.43,1.43,0,0,0-1-.35h-0.26l0-.21h6.29a9.15,9.15,0,0,0,1.45-.13A6,6,0,0,0,242,156v2.69H241.8v-0.38a1.2,1.2,0,0,0-.35-0.88,1.22,1.22,0,0,0-.85-0.38h-4.38v6.6h3.63a1.08,1.08,0,0,0,.73-0.32,1,1,0,0,0,.3-0.75v-0.3h0.21v3.37h-0.21v-0.32a1,1,0,0,0-.29-0.73,1,1,0,0,0-.72-0.32h-3.65v6.38h3.07a3.68,3.68,0,0,0,2.43-.7,5.22,5.22,0,0,0,1.4-2.09h0.21l-1.25,3.46h-8.91v-0.21h0.28Z" transform="translate(-21.08 -25.37)"/><path class="cls-2" d="M21.08,117.67s25.49,31.91,106.83,2.57C237,80.88,274.26,113.37,313.47,145.36c-35.75-18.71-72.16-55-164.93-24.39C73.15,145.82,40.55,145.82,21.08,117.67Z" transform="translate(-21.08 -25.37)"/><path class="cls-2" d="M24,116.43s23,24.48,80.27,7c60.51-18.46,76.44-27.6,116.16-25.28-23-4.55-41.62-6.13-116.24,21.07C65.57,133.29,24,116.43,24,116.43Z" transform="translate(-21.08 -25.37)"/><path class="cls-2" d="M21.08,47.5S46.57,79.41,127.9,50.07C237,10.72,274.26,43.21,313.47,75.2c-35.75-18.71-72.16-55-164.93-24.39C73.15,75.66,40.55,75.66,21.08,47.5Z" transform="translate(-21.08 -25.37)"/><path class="cls-2" d="M24,46.27s23,24.48,80.27,7C164.79,34.79,180.71,25.65,220.43,28c-23-4.55-41.62-6.13-116.24,21.07C65.57,63.12,24,46.27,24,46.27Z" transform="translate(-21.08 -25.37)"/><path class="cls-1" d="M41,106.69a1.84,1.84,0,0,0,1.4-.41,1.93,1.93,0,0,0,.73-1.26l1.79-16.61a1.87,1.87,0,0,0-.82-1.66,2,2,0,0,0-.9-0.34l-0.39,0,0-.3L51.26,87a11.36,11.36,0,0,0,2.33,0,9.84,9.84,0,0,0,1.33-.19L54.36,92,54,92l0-.36a2.9,2.9,0,0,0-.53-2.24,3.07,3.07,0,0,0-2.05-1.11l-2-.21-0.93,8.68,4.77,0.51a2.58,2.58,0,0,0,1.91-.56A2.48,2.48,0,0,0,56.17,95l0-.27,0.27,0-0.74,6.89-0.27,0,0-.24a2.47,2.47,0,0,0-.52-1.9,2.57,2.57,0,0,0-1.72-.94L48.43,98l-0.9,8.38L53.38,107a5.55,5.55,0,0,0,3.81-.86,7.44,7.44,0,0,0,2.59-3.31l0.3,0L58,108.83,40.58,107l0-.3Z" transform="translate(-21.08 -25.37)"/><path class="cls-1" d="M86.7,106.36l0.42,0,0,0.3-10.25,1,0-.3,0.39,0a1.18,1.18,0,0,0,1-.7,1.31,1.31,0,0,0,.12-0.64,1.16,1.16,0,0,0-.24-0.58L73.29,99.3l-5,8.82q-3.06,5.3-7.29,5.72a7.34,7.34,0,0,1-1.3,0l0-.3A7,7,0,0,0,64,110.87a30.42,30.42,0,0,0,1.9-2.87l6.08-10.37-6.33-7.91a4,4,0,0,0-2-1.34,3.25,3.25,0,0,0-1.23-.12L62,88.3l0-.3,10.21-1,0,0.3-0.39,0a1.18,1.18,0,0,0-1,.7,1.34,1.34,0,0,0-.12.66,1.18,1.18,0,0,0,.21.57l4.25,5.28,4.47-8.16q2.93-5.32,7.2-5.75l0.75,0,0,0.3q-2.46.3-4.59,3.86-0.32.48-.61,1a6,6,0,0,1-.38.64l-5.49,9.86,6.92,8.66A4.22,4.22,0,0,0,85,106,3.29,3.29,0,0,0,86.7,106.36Z" transform="translate(-21.08 -25.37)"/><path class="cls-1" d="M97,92.68a2.06,2.06,0,0,0,2.33.7,3.28,3.28,0,0,0,2.42-2.4,5.88,5.88,0,0,0,0-3.21,5.14,5.14,0,0,0-2.35-3.65,4.2,4.2,0,0,0-3-.3,5.8,5.8,0,0,0-.78.24l-1.9.74L97.67,102a1.78,1.78,0,0,0,.86,1.19,1.92,1.92,0,0,0,1.44.22l0.38-.09,0.07,0.29-8.95,2.05-0.07-.29,0.38-.09a1.86,1.86,0,0,0,1.19-.83,1.91,1.91,0,0,0,.27-1.45L89.68,87.39A1.8,1.8,0,0,0,89,86.3a1.71,1.71,0,0,0-1.35-.15l-0.52.15L87,86q2.45-.78,5.1-1.89t3.48-1.43a13.57,13.57,0,0,1,1.74-.52,15.31,15.31,0,0,1,2.21-.31,9,9,0,0,1,2.78.25,5.47,5.47,0,0,1,2.59,1.45,6.14,6.14,0,0,1,1.58,3,7.28,7.28,0,0,1,.07,3.26A6.07,6.07,0,0,1,103,94.1a6.18,6.18,0,0,1-1.36.5,6.57,6.57,0,0,1-1.28.17,4.32,4.32,0,0,1-2.22-.35,2.87,2.87,0,0,1-1.44-1.55Z" transform="translate(-21.08 -25.37)"/><path class="cls-1" d="M146.58,95.19a11.11,11.11,0,0,1-4.42,2.64,12.2,12.2,0,0,1-4.3.62,14.57,14.57,0,0,1-8.58-3.52q-1-.8-3.94-3.08T121.63,89a4,4,0,0,0-2.16-1.2l-0.09-.29,0.07,0,0.1,0,0.12,0,0.14,0,0.14,0a6,6,0,0,0,2.49-1.52q1.54-1.63.65-4.4a4.33,4.33,0,0,0-2.15-2.76,4,4,0,0,0-3.11-.21l-2.19.7L121,95.74a1.79,1.79,0,0,0,1,1.1,1.89,1.89,0,0,0,1.46.11l0.37-.12,0.09,0.29-8.74,2.8L115,99.64l0.37-.12a1.88,1.88,0,0,0,1.1-.92,1.85,1.85,0,0,0,.17-1.44L111.59,81.3a1.92,1.92,0,0,0-1-1.09,1.84,1.84,0,0,0-1.45-.12l-0.37.12-0.09-.29,9.86-3.16a9.23,9.23,0,0,1,6.29-.16,4.75,4.75,0,0,1,2.8,3.2,5.41,5.41,0,0,1-.32,4.4,5.29,5.29,0,0,1-3.1,2.65l-0.38.09a9,9,0,0,1,2.42.77q1,0.52,1.85,1t1.4,0.89l1.56,1,2,1.35q1,0.7,2.27,1.4A18.86,18.86,0,0,0,138,94.64a13.2,13.2,0,0,0,2.72.73,12.67,12.67,0,0,0,5.78-.47Z" transform="translate(-21.08 -25.37)"/><path class="cls-1" d="M138.72,91.56a1.84,1.84,0,0,0,1.08-1,1.92,1.92,0,0,0,.11-1.45l-5.54-15.77a1.87,1.87,0,0,0-1.46-1.14,2,2,0,0,0-1,.08l-0.37.13-0.1-.28,8-2.81a11.39,11.39,0,0,0,2.12-1,9.91,9.91,0,0,0,1.12-.74l1.74,5-0.31.11L144,72.37a2.89,2.89,0,0,0-1.45-1.8,3.07,3.07,0,0,0-2.33-.12l-1.88.66,2.89,8.24,4.53-1.59a2.58,2.58,0,0,0,1.48-1.33,2.48,2.48,0,0,0,.08-2l-0.09-.25,0.26-.09,2.3,6.54-0.26.09-0.08-.23A2.47,2.47,0,0,0,148.21,79a2.57,2.57,0,0,0-2-.11l-4.56,1.6,2.79,8,5.55-2a5.54,5.54,0,0,0,3.07-2.41A7.44,7.44,0,0,0,154,80l0.29-.1L155,86.17,138.45,92l-0.1-.28Z" transform="translate(-21.08 -25.37)"/><path class="cls-1" d="M159,76.33a7.29,7.29,0,0,0-.35,4.1,6.29,6.29,0,0,0,4.92,4.64,7.46,7.46,0,0,0,3-.07,6.63,6.63,0,0,0,2.68-1.2,4.17,4.17,0,0,0,1.62-4.47,4.31,4.31,0,0,0-1.16-2,6.74,6.74,0,0,0-2.53-1.6l-5.74-2.25a5.52,5.52,0,0,1-3.94-4.06q-0.06-.29-0.1-0.59a5.34,5.34,0,0,1,1-4.07,6.6,6.6,0,0,1,4.07-2.37,35.17,35.17,0,0,1,4.14-.59l1.83-.4L169,65.77l-0.27.06A3.14,3.14,0,0,0,167,63.64a4.82,4.82,0,0,0-3.24-.26,4,4,0,0,0-3,2.1,2.63,2.63,0,0,0-.17,1.63,2.08,2.08,0,0,0,.8,1.28,7.31,7.31,0,0,0,1.86.9l6.29,2.38a8.8,8.8,0,0,1,3.18,2,6.6,6.6,0,0,1,1.89,3.3,7.26,7.26,0,0,1,.05,2.58,7,7,0,0,1-1.07,2.76,8.57,8.57,0,0,1-2.45,2.44,10.43,10.43,0,0,1-3.7,1.54,9.84,9.84,0,0,1-4,.1,6.69,6.69,0,0,1-5-3.73,6.11,6.11,0,0,1-.5-1.43,7.56,7.56,0,0,1,.73-5Z" transform="translate(-21.08 -25.37)"/><path class="cls-1" d="M180.1,72.27a7.3,7.3,0,0,0-.86,4,6.29,6.29,0,0,0,4.29,5.22,7.46,7.46,0,0,0,3,.31,6.63,6.63,0,0,0,2.8-.85,4.17,4.17,0,0,0,2.17-4.23,4.31,4.31,0,0,0-.9-2.15,6.74,6.74,0,0,0-2.3-1.91l-5.41-3a5.52,5.52,0,0,1-3.4-4.52,6,6,0,0,1,0-.6A5.34,5.34,0,0,1,181,60.7a6.6,6.6,0,0,1,4.34-1.84,35.21,35.21,0,0,1,4.18-.07l1.86-.16v4.43l-0.27,0a3.13,3.13,0,0,0-1.42-2.39,4.82,4.82,0,0,0-3.18-.67,4,4,0,0,0-3.28,1.7,2.63,2.63,0,0,0-.37,1.6,2.08,2.08,0,0,0,.64,1.37,7.3,7.3,0,0,0,1.74,1.13L191.14,69a8.81,8.81,0,0,1,2.9,2.37,6.6,6.6,0,0,1,1.46,3.52,7.25,7.25,0,0,1-.27,2.57A7,7,0,0,1,193.83,80a8.57,8.57,0,0,1-2.74,2.11,10.43,10.43,0,0,1-3.86,1.06,9.85,9.85,0,0,1-4-.41,6.69,6.69,0,0,1-4.5-4.33,6.12,6.12,0,0,1-.31-1.48,7.56,7.56,0,0,1,1.36-4.91Z" transform="translate(-21.08 -25.37)"/><path class="cls-1" d="M208.07,55.89a8,8,0,0,1,3.06-.32,9.33,9.33,0,0,1,2.18.53,8.3,8.3,0,0,1,1.85,1,9.53,9.53,0,0,1,1.69,1.6,16.08,16.08,0,0,1,2.37,3.95l4.49,12L234.37,61l0.27,0,0.78,17.9A15.25,15.25,0,0,0,237,85.67a5.74,5.74,0,0,0,4.53,3.06L242,88.77l0,0.3a12.41,12.41,0,0,1-3.29,0,8.46,8.46,0,0,1-5.56-3.31,12.9,12.9,0,0,1-2.56-7.52l-0.31-8.85-6.92,8.94a6.92,6.92,0,0,0-1.61,3.14l-0.27,0-5.58-15-3.06,11.7a1.08,1.08,0,0,0,.45,1.18,1,1,0,0,0,.54.25l0.48,0.06,0,0.27L208,79.06l0-.3,0.48,0.06a2.28,2.28,0,0,0,1.45-.27,2,2,0,0,0,.93-1.16l3.93-13.91a22,22,0,0,0-2.52-4.63,5.66,5.66,0,0,0-3.79-2.63,2.46,2.46,0,0,0-.39,0Z" transform="translate(-21.08 -25.37)"/><path class="cls-1" d="M264.6,97.28a8.47,8.47,0,0,1-6.54-1.42,12,12,0,0,1-4.52-6.44,21,21,0,0,1-1-5.08l-0.19-2.72-6.82-2.06L243,82.7a1.85,1.85,0,0,0-.33.56,1.51,1.51,0,0,0-.05.53,1.07,1.07,0,0,0,.29.62,1.38,1.38,0,0,0,.67.44l0.23,0.07-0.09.29-6.18-1.87,0.09-.29,0.26,0.08a2.66,2.66,0,0,0,1.43,0,3.18,3.18,0,0,0,1.44-.83l10.87-12.67a9.12,9.12,0,0,0-1.35-4.2A3.59,3.59,0,0,0,248.44,64a5.79,5.79,0,0,0-1.89-.26l0-.3a9.17,9.17,0,0,1,4.31.14,6.19,6.19,0,0,1,3.69,3.12,16.3,16.3,0,0,1,1.68,6.21l1.08,11.55q0.6,6.55,2.43,9.48a6.18,6.18,0,0,0,1.71,1.86,6.35,6.35,0,0,0,1.7.89,6.15,6.15,0,0,0,1.48.26ZM246.45,78.46l5.89,1.78-0.42-5.92q0-.45-0.07-1.23t0-1.1Z" transform="translate(-21.08 -25.37)"/><path class="cls-1" d="M270.45,94.55l0.36,0.15-0.12.28-8.46-3.55,0.12-.28,0.36,0.15a1.84,1.84,0,0,0,1.45,0,1.93,1.93,0,0,0,1.06-1L272,74.1l-2.69-1q-2.66-1-3.43.84a1.85,1.85,0,0,0,0,1.47,2.11,2.11,0,0,0,1.22,1.11l0.17,0.07-0.07.17a3.23,3.23,0,0,1-1-.2,2.45,2.45,0,0,1-1.55-1.69,2.38,2.38,0,0,1,.11-1.58,2.69,2.69,0,0,1,1.8-1.6,5.65,5.65,0,0,1,3.35.32l2.38,0.87a52.56,52.56,0,0,0,6.77,2.19l-0.06.3a2.83,2.83,0,0,0-2,.1A3.19,3.19,0,0,0,275.7,77l-6.31,15a1.92,1.92,0,0,0,0,1.46A1.84,1.84,0,0,0,270.45,94.55Z" transform="translate(-21.08 -25.37)"/><path class="cls-1" d="M294.17,111.8a9.32,9.32,0,0,0,5.06,1.26l0.08,0.31a8.92,8.92,0,0,1-7.56.51,13.12,13.12,0,0,1-1.29-.57q-0.52-.27-1.18-0.67a12.1,12.1,0,0,1-1.73-1.36q-1.06-1-1.83-1.79t-1.71-2q-0.95-1.19-1.53-2l-1.4-2q-0.81-1.15-1.43-2T278.42,100a13.54,13.54,0,0,0-4-3.23l0.14-.27,0.35,0.18a1.86,1.86,0,0,0,1.44.14,1.9,1.9,0,0,0,1.15-.92l7.7-14.73a1.9,1.9,0,0,0,.1-1.47,1.87,1.87,0,0,0-.94-1.1L284,78.4l0.14-.27,8.13,4.25-0.17.25-0.27-.14a1.89,1.89,0,0,0-2,0,1.73,1.73,0,0,0-.69.72l-8.06,15.42a1.86,1.86,0,0,0-.29,1.39,2.21,2.21,0,0,0,.53.87Q289.71,109.47,294.17,111.8Z" transform="translate(-21.08 -25.37)"/></svg>